<svg width="64" height="16" viewBox="0 0 64 16" fill="none" xmlns="http://www.w3.org/2000/svg">
<g clip-path="url(#clip0_6497_236)">
<mask id="mask0_6497_236" style="mask-type:luminance" maskUnits="userSpaceOnUse" x="0" y="1" width="64" height="15">
<path d="M63.2 1.07031H0.5V15.0703H63.2V1.07031Z" fill="white"/>
</mask>
<g mask="url(#mask0_6497_236)">
<path d="M11.5993 1.07031H8.59922C8.59922 3.57031 7.39922 5.87031 5.39922 7.37031L4.19922 8.37031L8.89922 14.7703H12.7993L8.39922 8.87031C10.4993 6.87031 11.5993 4.07031 11.5993 1.07031Z" fill="black"/>
<path d="M3.79922 1.07031H0.699219V14.7703H3.79922V1.07031Z" fill="black"/>
<path d="M16.6992 1.07031H13.6992V14.7703H16.6992V1.07031Z" fill="black"/>
<path d="M42.5984 5.07031C41.4984 5.07031 40.3984 5.37031 39.6984 6.37031V5.37031H36.8984V14.7703H39.7984V9.77031C39.7984 8.37031 40.7984 7.67031 41.8984 7.67031C43.0984 7.67031 43.8984 8.37031 43.8984 9.77031V14.7703H46.6984V8.77031C46.5984 6.57031 44.8984 5.07031 42.5984 5.07031Z" fill="black"/>
<path d="M25.5988 5.37031V5.97031C24.7988 5.37031 23.7988 5.07031 22.7988 5.07031C19.9988 5.07031 17.7988 7.27031 17.7988 10.0703C17.7988 12.8703 19.9988 15.0703 22.7988 15.0703C23.7988 15.0703 24.7988 14.7703 25.5988 14.1703V14.7703H28.3988V5.37031H25.5988ZM22.9988 12.4703C21.5988 12.4703 20.3988 11.3703 20.3988 10.0703C20.3988 8.77031 21.4988 7.67031 22.9988 7.67031C24.4988 7.67031 25.5988 8.77031 25.5988 10.0703C25.5988 11.3703 24.3988 12.4703 22.9988 12.4703Z" fill="black"/>
<path d="M32.7984 6.57061V5.37061H29.8984V14.7706H32.7984V10.3706C32.7984 8.87061 34.3984 8.07061 35.4984 8.07061V5.37061C34.3984 5.37061 33.3984 5.77061 32.7984 6.57061Z" fill="black"/>
<path d="M55.3996 5.37031V5.97031C54.5996 5.37031 53.6996 5.07031 52.5996 5.07031C49.7996 5.07031 47.5996 7.27031 47.5996 10.0703C47.5996 12.8703 49.7996 15.0703 52.5996 15.0703C53.5996 15.0703 54.5996 14.7703 55.3996 14.1703V14.7703H58.1996V5.37031H55.3996ZM52.8996 12.4703C51.4996 12.4703 50.2996 11.3703 50.2996 10.0703C50.2996 8.77031 51.3996 7.67031 52.8996 7.67031C54.2996 7.67031 55.4996 8.77031 55.4996 10.0703C55.3996 11.3703 54.2996 12.4703 52.8996 12.4703Z" fill="black"/>
<path d="M60.3984 5.57061C60.3984 5.47061 60.2984 5.37061 60.1984 5.37061H59.8984V6.07061H59.9984V5.87061H60.0984L60.2984 6.07061H60.3984L60.2984 5.77061C60.3984 5.77061 60.3984 5.67061 60.3984 5.57061ZM60.1984 5.67061H60.0984V5.47061H60.1984C60.2984 5.47061 60.2984 5.47061 60.2984 5.57061C60.2984 5.67061 60.2984 5.67061 60.1984 5.67061Z" fill="black"/>
<path d="M60.2 5.07031C59.8 5.07031 59.5 5.37031 59.5 5.77031C59.5 6.17031 59.8 6.47031 60.2 6.47031C60.6 6.47031 60.9 6.17031 60.9 5.77031C60.9 5.37031 60.5 5.07031 60.2 5.07031ZM60.2 6.27031C59.9 6.27031 59.7 6.07031 59.7 5.67031C59.7 5.37031 59.9 5.07031 60.2 5.07031C60.5 5.07031 60.7 5.27031 60.7 5.67031C60.7 6.07031 60.4 6.27031 60.2 6.27031Z" fill="black"/>
<path d="M61.3 11.4702C60.3 11.4702 59.5 12.2702 59.5 13.2702C59.5 14.2702 60.3 15.0702 61.3 15.0702C62.3 15.0702 63.1 14.2702 63.1 13.2702C63.1 12.1702 62.3 11.4702 61.3 11.4702Z" fill="black"/>
</g>
</g>
<defs>
<clipPath id="clip0_6497_236">
<rect width="64" height="15" fill="white" transform="translate(0 0.470215)"/>
</clipPath>
</defs>
</svg>
