<svg width="53" height="16" viewBox="0 0 53 16" fill="none" xmlns="http://www.w3.org/2000/svg">
<mask id="mask0_6497_219" style="mask-type:luminance" maskUnits="userSpaceOnUse" x="0" y="1" width="53" height="15">
<path d="M52.5 1.07031H0V15.0703H52.5V1.07031Z" fill="white"/>
</mask>
<g mask="url(#mask0_6497_219)">
<path d="M6.63704 1.18262H2.61204C2.33704 1.18262 2.09954 1.38261 2.06204 1.6576L0.437045 11.9576C0.399545 12.1576 0.562045 12.3451 0.774545 12.3451H2.69954C2.97454 12.3451 3.21204 12.1452 3.24954 11.8702L3.68704 9.0951C3.72454 8.8201 3.96204 8.62011 4.23704 8.62011H5.49954C8.14954 8.62011 9.67454 7.34512 10.0746 4.79512C10.2496 3.68262 10.0871 2.80761 9.56204 2.19511C8.98704 1.54511 7.97454 1.18262 6.63704 1.18262ZM7.09954 4.95761C6.87454 6.39511 5.77454 6.39511 4.71204 6.39511H4.09954L4.52454 3.70761C4.54954 3.54511 4.68704 3.42012 4.84954 3.42012H5.12454C5.84954 3.42012 6.53704 3.42011 6.88704 3.83261C7.11204 4.08261 7.17454 4.44511 7.09954 4.95761Z" fill="#283B82"/>
<path d="M18.6503 4.90771H16.7253C16.5628 4.90771 16.4253 5.03272 16.4003 5.19522L16.3128 5.73274L16.1753 5.53271C15.7628 4.93271 14.8253 4.72021 13.9003 4.72021C11.7753 4.72021 9.96281 6.33272 9.60031 8.59522C9.41281 9.72022 9.67531 10.7953 10.3128 11.5578C10.9003 12.2453 11.7378 12.5327 12.7378 12.5327C14.4503 12.5327 15.4003 11.4328 15.4003 11.4328L15.3128 11.9702C15.2753 12.1702 15.4378 12.3578 15.6378 12.3578H17.3753C17.6503 12.3578 17.8878 12.1578 17.9253 11.8828L18.9628 5.29524C19.0128 5.09524 18.8503 4.90771 18.6503 4.90771ZM15.9628 8.65772C15.7753 9.75772 14.9003 10.4953 13.7878 10.4953C13.2253 10.4953 12.7878 10.3202 12.5003 9.97022C12.2128 9.63272 12.1128 9.15773 12.2003 8.62023C12.3753 7.53273 13.2628 6.77023 14.3628 6.77023C14.9128 6.77023 15.3503 6.95774 15.6503 7.29524C15.9253 7.63274 16.0503 8.12022 15.9628 8.65772Z" fill="#283B82"/>
<path d="M28.8994 4.90771H26.9619C26.7744 4.90771 26.5994 4.99521 26.4994 5.15771L23.8369 9.08272L22.7119 5.30772C22.6369 5.07022 22.4244 4.90771 22.1744 4.90771H20.2744C20.0494 4.90771 19.8869 5.13271 19.9619 5.34521L22.0869 11.5952L20.0869 14.4202C19.9244 14.6452 20.0869 14.9452 20.3619 14.9452H22.2994C22.4869 14.9452 22.6494 14.8577 22.7619 14.7077L29.1994 5.42024C29.3244 5.20774 29.1619 4.90771 28.8994 4.90771Z" fill="#283B82"/>
<path d="M35.2992 1.18262H31.2742C30.9992 1.18262 30.7617 1.38261 30.7242 1.6576L29.0992 11.9576C29.0617 12.1576 29.2242 12.3451 29.4242 12.3451H31.4992C31.6867 12.3451 31.8492 12.2076 31.8867 12.0201L32.3492 9.0951C32.3867 8.8201 32.6242 8.62011 32.8992 8.62011H34.1742C36.8242 8.62011 38.3492 7.34512 38.7492 4.79512C38.9242 3.68262 38.7617 2.80761 38.2367 2.19511C37.6617 1.54511 36.6492 1.18262 35.2992 1.18262ZM35.7617 4.95761C35.5367 6.39511 34.4367 6.39511 33.3742 6.39511H32.7742L33.1992 3.70761C33.2242 3.54511 33.3617 3.42012 33.5242 3.42012H33.7992C34.5242 3.42012 35.2117 3.42011 35.5617 3.83261C35.7742 4.08261 35.8367 4.44511 35.7617 4.95761Z" fill="#469BDB"/>
<path d="M47.3124 4.90771H45.3874C45.2249 4.90771 45.0874 5.03272 45.0624 5.19522L44.9749 5.73274L44.8374 5.53271C44.4249 4.93271 43.4874 4.72021 42.5624 4.72021C40.4374 4.72021 38.6249 6.33272 38.2624 8.59522C38.0749 9.72022 38.3374 10.7953 38.9749 11.5578C39.5624 12.2453 40.3999 12.5327 41.3999 12.5327C43.1124 12.5327 44.0624 11.4328 44.0624 11.4328L43.9749 11.9702C43.9374 12.1702 44.0999 12.3578 44.3124 12.3578H46.0499C46.3249 12.3578 46.5624 12.1578 46.5999 11.8828L47.6374 5.29524C47.6749 5.09524 47.5124 4.90771 47.3124 4.90771ZM44.6249 8.65772C44.4374 9.75772 43.5624 10.4953 42.4499 10.4953C41.8874 10.4953 41.4499 10.3202 41.1624 9.97022C40.8749 9.63272 40.7749 9.15773 40.8624 8.62023C41.0374 7.53273 41.9249 6.77023 43.0249 6.77023C43.5749 6.77023 44.0124 6.95774 44.3124 7.29524C44.5999 7.63274 44.7124 8.12022 44.6249 8.65772Z" fill="#469BDB"/>
<path d="M49.5753 1.47019L47.9253 11.9702C47.8878 12.1702 48.0503 12.3577 48.2503 12.3577H49.9128C50.1878 12.3577 50.4253 12.1577 50.4628 11.8827L52.0878 1.5827C52.1253 1.38269 51.9628 1.1952 51.7628 1.1952H49.9003C49.7503 1.1827 49.6128 1.30769 49.5753 1.47019Z" fill="#469BDB"/>
</g>
</svg>
